<svg version="1.1" id="Layer_1" xmlns="http://www.w3.org/2000/svg" xmlns:xlink="http://www.w3.org/1999/xlink" x="0px" y="0px"
	 viewBox="0 0 559.6 273.8" style="enable-background:new 0 0 559.6 273.8;" xml:space="preserve">
<style type="text/css">
	.st0{fill:#FFDA31;}
	.st1{fill:#FFFFFF;}
</style>
<path class="st0" d="M108.8,41.3c0,13.5-6.2,38.6-52.1,38.6h-4.6C6.4,79.9,0,54.9,0,41.3v-3.1C0,24.5,6.4,0,52.1,0h4.6
	c45.8,0,52.1,24.5,52.1,38.2L108.8,41.3L108.8,41.3z M83.5,38.9c0-8.7-5.4-20.1-29.1-20.1c-24.1,0-29.1,11.4-29.1,20.1v1.2
	c0,8.7,5.5,20.9,29.1,20.9C78,61,83.5,49.2,83.5,40.4V38.9z"/>
<path class="st0" d="M113.7,30.7V16.2c13.3-0.8,19.5-6.7,23-14.8h18.9v77.2h-24V30.7H113.7z"/>
<rect x="182.3" y="36.3" class="st0" width="127.8" height="13.5"/>
<path class="st0" d="M333.4,78.6v-8.7c0-11.4,2.1-28.7,37.9-36.1l18.1-3.7c10.5-2,11.4-4,11.4-6.4c0-3-2.4-5.8-19.4-5.8
	c-19.4,0-21.1,7.1-21.4,10.9h-25.2v-0.8c0-8.8,3.7-27.8,43.7-27.8h4.2c36.3,0,43.7,11.5,43.7,23.8V24c0,11.6-4.5,19-29.8,23.1
	l-21.2,3.5C357.1,54,355,58.1,355,60.3h48.9v-10h23.8v28.2C427.7,78.6,333.4,78.6,333.4,78.6z"/>
<rect x="533.1" y="60.4" class="st0" width="25" height="18.2"/>
<path class="st0" d="M3,128.7v-13.2c12.1-0.8,17.7-6.1,20.9-13.5h17.1v70.1H19.3v-43.4H3z"/>
<path class="st0" d="M148.1,138.3c0,12.2-5.7,35-47.3,35h-4.1c-41.5,0-47.3-22.7-47.3-35v-2.8c0-12.4,5.8-34.7,47.3-34.7h4.1
	c41.5,0,47.3,22.2,47.3,34.7V138.3z M125.1,136.1c0-7.9-4.9-18.3-26.4-18.3c-21.9,0-26.4,10.4-26.4,18.3v1.1c0,7.9,5,18.9,26.4,18.9
	c21.4,0,26.4-10.7,26.4-18.7L125.1,136.1L125.1,136.1z"/>
<rect x="149.7" y="155.6" class="st0" width="22.7" height="16.5"/>
<path class="st0" d="M178.9,172.1v-7.9c0-10.4,1.9-26,34.4-32.8l16.4-3.4c9.5-1.8,10.4-3.7,10.4-5.8c0-2.7-2.2-5.3-17.6-5.3
	c-17.6,0-19.1,6.4-19.4,9.9h-22.9v-0.8c0-8,3.4-25.2,39.7-25.2h3.8c33,0,39.7,10.5,39.7,21.6v0.2c0,10.6-4.1,17.2-27,21l-19.2,3.2
	c-16.6,3-18.5,6.8-18.5,8.8h44.4v-9h21.6v25.6L178.9,172.1L178.9,172.1z"/>
<path class="st0" d="M368.5,138.3c0,12.2-5.7,35-47.3,35H317c-41.5,0-47.3-22.7-47.3-35v-2.8c0-12.4,5.8-34.7,47.3-34.7h4.1
	c41.5,0,47.3,22.2,47.3,34.7V138.3z M345.5,136.1c0-7.9-4.9-18.3-26.4-18.3c-21.9,0-26.4,10.4-26.4,18.3v1.1c0,7.9,5,18.9,26.4,18.9
	s26.4-10.7,26.4-18.7V136.1z"/>
<path class="st0" d="M370,172.1v-7.9c0-10.4,1.9-26,34.4-32.8l16.4-3.4c9.5-1.8,10.4-3.7,10.4-5.8c0-2.7-2.2-5.3-17.6-5.3
	c-17.6,0-19.1,6.4-19.4,9.9h-22.9v-0.8c0-8,3.4-25.2,39.7-25.2h3.8c33,0,39.7,10.5,39.7,21.6v0.2c0,10.6-4.1,17.2-27,21l-19.2,3.2
	c-16.6,3-18.5,6.8-18.5,8.8H434v-9h21.6v25.6L370,172.1L370,172.1z"/>
<path class="st0" d="M559.6,138.3c0,12.2-5.7,35-47.3,35h-4.1c-41.5,0-47.3-22.7-47.3-35v-2.8c0-12.4,5.8-34.7,47.3-34.7h4.1
	c41.5,0,47.3,22.2,47.3,34.7V138.3z M536.6,136.1c0-7.9-4.9-18.3-26.4-18.3c-21.9,0-26.4,10.4-26.4,18.3v1.1c0,7.9,5,18.9,26.4,18.9
	c21.4,0,26.4-10.7,26.4-18.7V136.1z"/>
<path class="st1" d="M113.9,266.8c-44.7,0-51.7-25-51.7-38.7v-3c0-14,6-38.2,51.7-38.2h4.3c44.7,0,51.7,21.4,51.7,30.4v1.1h-25.6
	c-0.6-2.1-3.7-12.9-28.2-12.9c-23.1,0-28.4,10.4-28.4,20v1.2c0,9.1,6.1,21.2,28.7,21.2c25,0,27.5-11.9,28.1-13.7h25.6v1.1
	c0,9.8-7.7,31.4-51.8,31.4L113.9,266.8L113.9,266.8z"/>
<polygon class="st1" points="178.3,188.2 202.5,188.2 202.5,216.3 254.4,216.3 254.4,188.2 278.6,188.2 278.6,265.4 254.4,265.4
	254.4,235 202.5,235 202.5,265.4 178.3,265.4 "/>
<polygon class="st1" points="316.5,273.8 299.1,273.8 333.4,180.7 351.1,180.7 "/>
<polygon class="st1" points="451.9,188.2 451.9,205.7 396.1,205.7 396.1,217.2 450.5,217.2 450.5,234.8 396.1,234.8 396.1,265.4
	372,265.4 372,188.2 "/>
<path class="st1" d="M486.2,265.4H462v-77.2h62.3c25.7,0,33.5,8.9,33.5,20v1.2c0,11.1-9.2,15.3-14.3,16.9
	c7.9,2.3,14.6,7.8,14.6,17.8v11.3c0,6.2,0.7,8.2,1.5,9.4v0.5H535c-0.7-0.9-1.1-2.1-1.1-4.9v-8.9c0-9.4-4.2-13.6-16.1-13.6h-31.6
	L486.2,265.4L486.2,265.4z M486.2,220.9h36.6c7,0,9.8-3.3,9.8-7.6v-0.1c0-4-2.7-7.5-9.8-7.5h-36.6L486.2,220.9L486.2,220.9z"/>
<path class="st0" d="M486.4,78.6c-9.9,0-19.7,0-29.8,0c0.4-2.4,0.7-4.6,1.2-6.9c2.5-11,8-20.4,15.3-28.7
	c7.1-8.1,14.8-15.7,22.2-23.5c0.4-0.4,0.8-0.9,1.5-1.7c-0.9-0.1-1.4-0.2-1.9-0.2c-11.9,0-23.8,0-35.8,0c-1.5,0-1.9,0.5-1.8,1.9
	c0.1,2,0,4,0,6c0,0.9-0.3,1.2-1.2,1.2c-5.9,0-11.7,0-17.6,0c-1,0-1.2-0.4-1.2-1.3c0-8.2,0-16.4,0-24.7c0-1,0.4-1.3,1.3-1.3
	c1.5,0,3,0,4.5,0c25.3,0,50.6,0,75.9,0c2.8,0,2.5-0.3,2.5,2.6c0,1.8-0.1,3.7,0,5.5c0.3,6-1.5,11.2-5.1,15.9
	c-4.7,6.2-9.5,12.4-14.3,18.5c-5.3,6.8-10.2,13.8-12.8,22.2c-1.2,4-1.9,8.1-2.8,12.2C486.6,77,486.5,77.7,486.4,78.6z"/>
</svg>
