<svg version="1.1"  xmlns="http://www.w3.org/2000/svg" xmlns:xlink="http://www.w3.org/1999/xlink" x="0px" y="0px"
	 viewBox="0 0 559.604 273.837" enable-background="new 0 0 559.604 273.837"
	 xml:space="preserve">
<path fill="#181717" d="M108.788,41.315c0,13.494-6.229,38.615-52.11,38.615H52.11C6.437,79.93,0,54.913,0,41.315V38.2
	C0,24.498,6.437,0,52.11,0h4.567c45.778,0,52.11,24.498,52.11,38.2V41.315z M83.46,38.927c0-8.72-5.398-20.138-29.066-20.138
	c-24.082,0-29.064,11.418-29.064,20.138v1.246c0,8.719,5.501,20.865,29.064,20.865c23.564,0,29.066-11.834,29.066-20.657V38.927z"/>
<path fill="#181717" d="M113.665,30.727V16.193c13.287-0.83,19.515-6.747,23.045-14.844h18.893v77.231h-23.979V30.727H113.665z"/>
<rect x="182.278" y="36.332" fill="#181717" width="127.783" height="13.495"/>
<path fill="#181717" d="M333.415,78.581v-8.72c0-11.418,2.076-28.65,37.89-36.124L389.366,30c10.484-1.972,11.42-4.048,11.42-6.436
	c0-3.01-2.389-5.813-19.412-5.813c-19.412,0-21.072,7.059-21.385,10.899h-25.225v-0.83c0-8.823,3.737-27.82,43.703-27.82h4.152
	c36.331,0,43.701,11.522,43.701,23.771v0.208c0,11.626-4.463,18.997-29.792,23.149l-21.177,3.529
	c-18.27,3.322-20.346,7.474-20.346,9.654h48.893v-9.965h23.771v28.235H333.415z"/>
<path fill="#181717" d="M480.817,80.138c-34.256,0-44.014-14.221-44.014-24.187v-0.415h25.018c0.313,1.142,2.699,6.748,20.554,6.748
	c22.11,0,24.602-12.769,24.602-18.063V43.91c-2.18,1.661-9.136,7.474-30.726,7.474h-1.35c-32.388,0-41.419-11.73-41.419-23.979
	v-0.934C433.482,15.052,438.569,0,478.534,0h4.567c38.512,0,48.165,18.581,48.165,38.824v2.491c0,18.166-8.719,38.823-46.297,38.823
	H480.817z M503.862,26.159c0-3.633-3.633-8.512-22.629-8.512c-19.619,0-22.318,4.879-22.318,8.512v0.312
	c0,3.84,2.699,8.719,22.318,8.719c19.411,0,22.629-4.983,22.629-8.719V26.159z"/>
<rect x="533.134" y="60.415" fill="#181717" width="25.018" height="18.166"/>
<path fill="#181717" d="M3.012,124.15v-14.533c13.287-0.83,19.516-6.747,23.045-14.844H44.95v77.231H20.97V124.15H3.012z"/>
<path fill="#181717" d="M162.87,134.739c0,13.494-6.229,38.615-52.11,38.615h-4.567c-45.674,0-52.11-25.018-52.11-38.615v-3.115
	c0-13.702,6.437-38.2,52.11-38.2h4.567c45.778,0,52.11,24.498,52.11,38.2V134.739z M137.542,132.351
	c0-8.72-5.398-20.138-29.066-20.138c-24.082,0-29.064,11.418-29.064,20.138v1.246c0,8.719,5.501,20.865,29.064,20.865
	c23.564,0,29.066-11.834,29.066-20.657V132.351z"/>
<rect x="164.632" y="153.839" fill="#181717" width="25.018" height="18.166"/>
<path fill="#181717" d="M196.81,172.005v-8.72c0-11.418,2.076-28.65,37.889-36.124l18.063-3.737
	c10.484-1.972,11.419-4.048,11.419-6.436c0-3.01-2.388-5.813-19.411-5.813c-19.412,0-21.073,7.059-21.385,10.899h-25.225v-0.83
	c0-8.823,3.736-27.82,43.702-27.82h4.152c36.331,0,43.702,11.522,43.702,23.771v0.208c0,11.626-4.465,18.997-29.793,23.149
	l-21.176,3.529c-18.27,3.322-20.346,7.474-20.346,9.654h48.893v-9.965h23.771v28.234H196.81z"/>
<path fill="#181717" d="M405.665,134.739c0,13.494-6.228,38.615-52.109,38.615h-4.568c-45.674,0-52.109-25.018-52.109-38.615v-3.115
	c0-13.702,6.436-38.2,52.109-38.2h4.568c45.777,0,52.109,24.498,52.109,38.2V134.739z M380.337,132.351
	c0-8.72-5.397-20.138-29.065-20.138c-24.083,0-29.065,11.418-29.065,20.138v1.246c0,8.719,5.502,20.865,29.065,20.865
	s29.065-11.834,29.065-20.657V132.351z"/>
<path fill="#181717" d="M410.542,124.15v-14.533c13.287-0.83,19.516-6.747,23.045-14.844h18.893v77.231h-23.979V124.15H410.542z"/>
<path fill="#181717" d="M508.429,173.562c-34.256,0-44.014-14.221-44.014-24.187v-0.415h25.018
	c0.311,1.143,2.699,6.748,20.553,6.748c22.111,0,24.602-12.77,24.602-18.063v-0.311c-2.18,1.661-9.135,7.474-30.726,7.474h-1.35
	c-32.388,0-41.419-11.729-41.419-23.979v-0.934c0-11.419,5.087-26.471,45.053-26.471h4.566c38.512,0,48.166,18.581,48.166,38.824
	v2.491c0,18.166-8.72,38.822-46.297,38.822H508.429z M531.474,119.583c0-3.633-3.633-8.512-22.63-8.512
	c-19.619,0-22.317,4.879-22.317,8.512v0.312c0,3.84,2.698,8.719,22.317,8.719c19.411,0,22.63-4.983,22.63-8.719V119.583z"/>
<path fill="#181717" d="M113.874,266.778c-44.74,0-51.695-25.018-51.695-38.72v-3.011c0-14.014,6.021-38.199,51.695-38.199h4.256
	c44.74,0,51.695,21.384,51.695,30.414v1.142h-25.641c-0.623-2.076-3.736-12.872-28.234-12.872
	c-23.148,0-28.443,10.381-28.443,20.035v1.246c0,9.134,6.125,21.176,28.65,21.176c25.018,0,27.509-11.938,28.132-13.702h25.64v1.142
	c0,9.758-7.682,31.35-51.799,31.35H113.874z"/>
<polygon fill="#181717" points="178.335,188.197 202.521,188.197 202.521,216.328 254.425,216.328 254.425,188.197 278.61,188.197 
	278.61,265.429 254.425,265.429 254.425,235.013 202.521,235.013 202.521,265.429 178.335,265.429 "/>
<polygon fill="#181717" points="316.497,273.837 299.058,273.837 333.417,180.724 351.063,180.724 "/>
<polygon fill="#181717" points="451.856,188.197 451.856,205.74 396.113,205.74 396.113,217.159 450.507,217.159 450.507,234.806 
	396.113,234.806 396.113,265.429 372.03,265.429 372.03,188.197 "/>
<path fill="#181717" d="M486.214,265.429h-24.186v-77.231h62.283c25.743,0,33.529,8.928,33.529,20.034v1.246
	c0,11.107-9.239,15.26-14.326,16.92c7.889,2.285,14.637,7.785,14.637,17.75v11.315c0,6.229,0.727,8.201,1.453,9.447v0.519h-24.602
	c-0.727-0.934-1.143-2.076-1.143-4.879v-8.927c0-9.447-4.151-13.599-16.089-13.599h-31.558V265.429z M486.214,220.896h36.645
	c6.955,0,9.758-3.321,9.758-7.577v-0.104c0-4.048-2.699-7.473-9.758-7.473h-36.645V220.896z"/>
</svg>
