<?xml version="1.0" encoding="utf-8"?>
<!-- Generator: Adobe Illustrator 16.0.0, SVG Export Plug-In . SVG Version: 6.00 Build 0)  -->
<!DOCTYPE svg PUBLIC "-//W3C//DTD SVG 1.1//EN" "https://www.w3.org/Graphics/SVG/1.1/DTD/svg11.dtd">
<svg version="1.1" id="Layer_1" xmlns="https://www.w3.org/2000/svg" xmlns:xlink="https://www.w3.org/1999/xlink" x="0px" y="0px"
	 width="158px" height="158px" viewBox="141.555 146.473 158 158" enable-background="new 141.555 146.473 158 158"
	 xml:space="preserve">
<circle cx="220.556" cy="225.473" r="79"/>
<g>
	<path fill="#FFFFFF" d="M184.119,253.742c-0.812-8.114,5.149-15.539,13.386-16.364c6.884-0.688,9.133,3.184,14.751,3.49
		l3.001,29.996C204.392,271.453,185.485,267.386,184.119,253.742z"/>
	<path fill="#FFFFFF" d="M216.682,240.425c6.551-1.524,11-7.929,10.288-15.058l-2.879-28.765
		c-0.836-8.361,5.138-15.663,13.497-16.499c8.237-0.825,15.539,5.149,16.375,13.508l2.879,28.765
		c2.361,23.603-14.171,44.501-37.158,48.044L216.682,240.425z"/>
</g>
</svg>
