<svg version="1.1"  xmlns="http://www.w3.org/2000/svg" xmlns:xlink="http://www.w3.org/1999/xlink" x="0px" y="0px"  viewBox="0 0 633.826 264.08" enable-background="new 0 0 633.826 264.08"
	 xml:space="preserve">
<path fill="#ffffff" d="M41.003,78.374C8.823,78.374,0,59.585,0,44.948v-0.622h24.498c0.311,3.425,1.972,14.844,18.685,14.844h1.245
	c12.768,0,18.582-7.37,18.582-19.101V0H87.3v40.692c0,15.986-7.578,37.682-40.484,37.682H41.003z"/>
<path fill="#ffffff" d="M163.285,63.114h-46.816l-6.955,14.118H84.912L123.943,0h31.349l41.315,77.232h-26.055L163.285,63.114z
	 M139.41,16.713l-14.325,28.962h29.273L139.41,16.713z"/>
<polygon fill="#ffffff" points="285.462,0 285.462,14.119 232.521,58.962 286.189,58.962 286.189,77.231 198.473,77.231 
	198.473,63.01 250.064,17.854 199.303,17.854 199.303,0 "/>
<polygon fill="#ffffff" points="380.235,0 380.235,14.119 327.294,58.962 380.962,58.962 380.962,77.231 293.246,77.231 
	293.246,63.01 344.837,17.854 294.076,17.854 294.076,0 "/>
<path fill="#ffffff" d="M53.771,172.005c-44.74,0-51.695-25.018-51.695-38.72v-3.01c0-14.014,6.02-38.2,51.695-38.2h4.256
	c44.74,0,51.695,21.384,51.695,30.414v1.142h-25.64c-0.623-2.076-3.737-12.872-28.235-12.872c-23.149,0-28.443,10.381-28.443,20.035
	v1.246c0,9.134,6.125,21.176,28.651,21.176c25.017,0,27.508-11.938,28.131-13.702h25.64v1.142c0,9.758-7.682,31.35-51.799,31.35
	H53.771z"/>
<path fill="#ffffff" d="M173.976,92.075c48.581,0,54.29,24.394,54.29,38.2v3.115c0,13.598-5.606,38.615-54.29,38.615h-4.464
	c-48.892,0-54.394-25.018-54.394-38.615v-3.115c0-13.806,5.502-38.2,54.394-38.2H173.976z M202.937,131.002
	c0-8.823-5.086-20.242-31.245-20.242c-26.574,0-31.246,11.419-31.246,20.242v1.246c0,8.823,5.087,20.968,31.246,20.968
	c25.951,0,31.245-11.833,31.245-20.76V131.002z"/>
<polygon fill="#ffffff" points="263.973,93.424 313.281,142.005 313.281,93.424 337.156,93.424 337.156,170.656 313.281,170.656 
	260.859,119.479 260.859,170.656 236.984,170.656 236.984,93.424 "/>
<polygon fill="#ffffff" points="379.195,111.694 345.977,111.694 345.977,93.424 436.912,93.424 436.912,111.694 403.589,111.694 
	403.589,170.656 379.195,170.656 "/>
<path fill="#ffffff" d="M469.919,170.656h-24.188V93.424h62.284c25.743,0,33.529,8.928,33.529,20.035v1.246
	c0,11.107-9.239,15.259-14.325,16.92c7.889,2.285,14.637,7.785,14.637,17.75v11.315c0,6.229,0.727,8.201,1.453,9.447v0.519h-24.602
	c-0.727-0.934-1.143-2.076-1.143-4.879v-8.927c0-9.447-4.151-13.599-16.09-13.599h-31.557V170.656z M469.919,126.123h36.645
	c6.955,0,9.756-3.322,9.756-7.578v-0.104c0-4.048-2.698-7.473-9.756-7.473h-36.645V126.123z"/>
<polygon fill="#ffffff" points="632.788,93.424 632.788,110.967 575.28,110.967 575.28,122.386 631.439,122.386 631.439,140.033 
	575.28,140.033 575.28,152.697 633.826,152.697 633.826,170.656 551.405,170.656 551.405,93.424 "/>
<path fill="#ffffff" d="M5.189,186.849h66.125c22.11,0,28.235,8.512,28.235,17.646v1.453c0,10.068-8.512,13.91-12.249,15.052
	c5.294,1.349,16.608,5.813,16.608,19.412v1.453c0,12.145-6.954,22.214-31.971,22.214H5.189V186.849z M29.376,203.146v12.561h37.785
	c6.748,0,8.408-3.114,8.408-6.229v-0.207c0-3.219-1.66-6.125-8.408-6.125H29.376z M29.376,232.107v15.156h39.861
	c7.993,0,9.551-4.464,9.551-7.578v-0.414c0-3.322-1.558-7.164-9.551-7.164H29.376z"/>
<path fill="#ffffff" d="M182.384,249.962h-46.816l-6.955,14.117h-24.602l39.031-77.231h31.349l41.315,77.231h-26.055
	L182.384,249.962z M158.509,203.561l-14.325,28.962h29.273L158.509,203.561z"/>
<polygon fill="#ffffff" points="246.949,186.848 296.257,235.429 296.257,186.848 320.132,186.848 320.132,264.08 296.257,264.08 
	243.834,212.904 243.834,264.08 219.959,264.08 219.959,186.848 "/>
<path fill="#ffffff" d="M331.963,186.849h51.177c44.739,0,54.497,19.203,54.497,36.539v3.113c0,16.609-9.237,37.578-54.394,37.578
	h-51.28V186.849z M356.15,245.499h25.121c27.405,0,31.039-12.042,31.039-19.931v-0.623c0-7.889-3.219-19.826-31.039-19.826H356.15
	V245.499z"/>
</svg>
