<svg xmlns="http://www.w3.org/2000/svg" width="495.002" height="495.315" viewBox="0 0 495.002 495.315"><path d="M65.725 217.312c2.789-7.663 11.382-11.766 19.16-8.935 6.501 2.366 6.848 6.831 11.776 9.545l-10.31 28.327c-10.046-4.183-25.316-16.051-20.626-28.937zm35.116 2.131c6.564 1.469 13.352-2.371 15.803-9.104l9.887-27.165c2.874-7.895 11.424-11.882 19.318-9.009 7.779 2.831 11.766 11.381 8.892 19.276l-9.887 27.165c-8.113 22.29-32.076 33.946-54.324 27.164l10.311-28.327zm35.145 21.075l36.51-36.013 3.629 38.792-18.875 18.633c-4.698 4.601-11.38 5.982-16.838 3.996-8.242-3-11.004-12.026-8.385-19.224.803-2.204 2.27-4.432 3.959-6.184zm76.377 35.424c.803-2.205 1.184-4.696.824-7.326l-5.85-61.948c-.483-6.618-4.641-11.812-10.213-13.84-8.242-3-16.077 1.906-18.697 9.104-.844 2.321-1.108 4.855-1.023 7.514l3.365 35.541-14.496 14.181 16.37 5.958.61 6.27c.642 6.544 4.872 11.897 10.328 13.884 8.242 3 16.045-2.181 18.665-9.378l.117.04zm-16.902 139.256L167.25 404.93c3.296-7.609 8.67-14.067 14.973-18.74 5.025-3.693 11.178-2.899 13.848-1.928 7.779 2.831 11.724 11.498 8.936 19.159-2.241 6.153-6.917 7.082-9.546 11.777zm-2.727 48.309c-22.058-8.027-33.905-32.191-26.964-54.513l28.21 10.268c-1.278 6.766 2.361 13.743 8.979 16.152 6.733 2.451 14.007-.556 17.26-6.603l28.325 10.31c-9.148 21.519-33.521 32.499-55.81 24.386zm28.963-38.76c1.004-5.286-2.108-8.654.258-15.157 2.789-7.661 11.381-11.765 19.16-8.933 4.875 1.773 8.358 5.934 9.485 10.42.316 1.298 3.363 11.348-.577 23.98l-28.326-10.31zm26.02-71.485c1.511-6.68-2.286-13.585-9.021-16.036-6.617-2.409-13.849.483-17.218 6.486l-28.211-10.268c9.147-21.519 33.597-32.34 55.654-24.312 22.289 8.113 33.944 32.076 27.12 54.439l-28.324-10.309zm-28.965 38.76c-22.057-8.028-33.787-32.151-26.963-54.515L220 347.775c-1.279 6.766 2.36 13.744 8.978 16.152 6.733 2.451 14.123-.514 17.26-6.603l28.326 10.31c-9.148 21.519-33.523 32.502-55.812 24.388zm34.797-182.296c-7.313-2.662-11.27-10.939-8.565-18.369l16.817-46.204c2.662-7.314 11.013-11.111 18.326-8.45 7.431 2.705 11.269 10.939 8.607 18.252l-16.817 46.205c-2.704 7.43-10.938 11.271-18.368 8.566zm63.299-2.335l-37.497-13.648 10.268-28.211 37.497 13.648c7.895 2.874 11.84 11.54 9.009 19.319-2.832 7.777-11.383 11.765-19.277 8.892zm43.551-119.659c7.546 2.747 11.84 11.541 9.009 19.319-1.437 3.947-4.615 7.26-8.879 8.864l-12.046 4.556-68.61-24.972c6.55-17.994 26.575-27.14 44.453-20.632 8.242 3 14.616 8.606 18.488 15.669l7.146-2.658c3.632-1.308 7.189-1.329 10.439-.146zm-4.428 56.237c2.831-7.779-1.113-16.445-9.009-19.318l-68.61-24.973-5.154 14.164c-2.831 7.777 1.272 16.37 9.051 19.201l54.447 19.817c7.894 2.873 16.445-1.114 19.275-8.891zM304.365 28.208l6.845-18.807c2.662-7.313 11.056-11.226 18.369-8.564 7.43 2.704 11.11 11.011 8.448 18.325l-6.846 18.807-26.816-9.761zM362.158 82.9l-54.447-19.817c-7.778-2.831-11.924-11.308-9.051-19.203l4.184-11.493 82.774 30.127-4.184 11.493c-2.872 7.895-11.497 11.724-19.276 8.893zm-26.679-43.367l3.169-8.707c2.07-5.689 8.404-8.643 14.093-6.572 5.688 2.07 8.643 8.404 6.572 14.093l-3.169 8.707-20.665-7.521zm24.842 9.042l6.846-18.808c2.662-7.313 10.938-11.269 18.252-8.606 7.547 2.747 11.228 11.054 8.565 18.367l-6.846 18.807-26.817-9.76zM251.679 439.694c4.394-12.072 17.653-18.158 29.727-13.764 4.179 1.521 7.588 4.074 10.195 7.391 7.252-8.01 18.833-11.287 29.629-7.358a27.366 27.366 0 0 1 16.392 35.153l-3.169 8.705-82.774-30.127zm57.793 54.692l-54.446-19.816c-7.779-2.831-11.925-11.308-9.052-19.201l4.184-11.494 82.773 30.128-4.183 11.493c-2.873 7.893-11.497 11.722-19.276 8.89zm52.731-145.24c7.199 2.62 12.379 10.421 9.379 18.665-1.986 5.456-7.338 9.687-13.883 10.329l-6.271.609-5.958 16.368-14.181-14.494-35.539 3.366c-2.661.084-5.193-.182-7.516-1.026-7.197-2.62-12.104-10.453-9.104-18.695 2.028-5.572 7.224-9.73 13.841-10.212l61.949-5.852c2.627-.357 5.119.022 7.324.825l-.041.117zm-29.197 80.22c7.198 2.62 16.224-.143 19.224-8.387 1.986-5.456.605-12.138-3.995-16.836L329.6 385.266l-38.79 3.631 36.014 36.509c1.749 1.688 3.977 3.157 6.182 3.96zm58.873-205.46c1.396-6.724-2.243-13.701-8.977-16.152-6.617-2.409-13.891.597-17.26 6.603l-28.211-10.268c9.031-21.562 33.597-32.341 55.654-24.313 22.29 8.113 33.945 32.076 27.12 54.44l-28.326-10.31zm3.346 34.875l-54.562-19.86c-7.777-2.831-11.808-11.267-8.934-19.162l4.183-11.492 82.773 30.127-4.183 11.493c-2.873 7.895-11.498 11.725-19.277 8.894zm-85.775 68.211a15.307 15.307 0 0 1-8.665-7.94c-3.585-7.687-.26-16.822 7.428-20.406l72.434-33.776c7.686-3.586 16.824-.26 20.406 7.428 3.586 7.686.261 16.822-7.427 20.405l-72.435 33.777a15.306 15.306 0 0 1-11.741.512zm64.287-6.782l-17.331-6.308-36.54 17.039L363.986 347c7.398 2.692 15.578-1.122 18.271-8.52 2.692-7.398-1.121-15.578-8.52-18.27zm-45.686-48.933l17.33 6.308 36.54-17.039-44.12-16.059c-7.397-2.692-15.577 1.122-18.27 8.52-2.692 7.398 1.121 15.577 8.52 18.27zM223.725 295.79a15.305 15.305 0 0 1-8.665-7.939c-3.585-7.687-.26-16.823 7.427-20.406l72.435-33.777c7.685-3.586 16.824-.26 20.406 7.427 3.585 7.687.26 16.822-7.428 20.406l-72.434 33.776a15.298 15.298 0 0 1-11.741.513zm64.287-6.781l-17.331-6.309-36.54 17.039 44.12 16.059c7.398 2.692 15.578-1.121 18.271-8.52 2.692-7.397-1.123-15.577-8.52-18.269zm-45.687-48.934l17.33 6.308 36.54-17.039-44.12-16.059c-7.398-2.692-15.577 1.122-18.271 8.52-2.691 7.398 1.123 15.578 8.521 18.27z" fill="#fff"/></svg>